<svg xmlns="http://www.w3.org/2000/svg" viewBox="0 0 960 600" width="960" height="600">
  <style>text{font-family:'Helvetica Neue',Helvetica,Arial,'PingFang SC','Microsoft YaHei',sans-serif;fill:#111827}.title{font-size:18px;font-weight:700}.label{font-size:13px;font-weight:600}.sub{font-size:11px;fill:#6b7280}.node{fill:#fff;stroke:#d1d5db;stroke-width:1.5}.blue{fill:#eff6ff;stroke:#bfdbfe}.green{fill:#f0fdf4;stroke:#bbf7d0}.purple{fill:#faf5ff;stroke:#e9d5ff}.orange{fill:#fff7ed;stroke:#fed7aa}.red{fill:#fef2f2;stroke:#fecaca}</style>
  <defs><marker id="arrow-blue" markerWidth="10" markerHeight="7" refX="9" refY="3.5" orient="auto"><polygon points="0 0,10 3.5,0 7" fill="#2563eb"/></marker><marker id="arrow-green" markerWidth="10" markerHeight="7" refX="9" refY="3.5" orient="auto"><polygon points="0 0,10 3.5,0 7" fill="#16a34a"/></marker><marker id="arrow-purple" markerWidth="10" markerHeight="7" refX="9" refY="3.5" orient="auto"><polygon points="0 0,10 3.5,0 7" fill="#9333ea"/></marker><marker id="arrow-red" markerWidth="10" markerHeight="7" refX="9" refY="3.5" orient="auto"><polygon points="0 0,10 3.5,0 7" fill="#dc2626"/></marker></defs>
  <rect width="960" height="600" fill="#fff"/><text x="30" y="34" class="title">Tauri 后端模块数据流</text>
  <rect x="55" y="75" width="170" height="60" rx="8" class="blue"/><text x="140" y="99" text-anchor="middle" class="label">Tauri run()</text><text x="140" y="118" text-anchor="middle" class="sub">plugins + app data</text>
  <rect x="300" y="75" width="170" height="60" rx="8" class="green"/><text x="385" y="99" text-anchor="middle" class="label">初始化数据库</text><text x="385" y="118" text-anchor="middle" class="sub">quiz.db + logs</text>
  <rect x="545" y="75" width="170" height="60" rx="8" class="purple"/><text x="630" y="99" text-anchor="middle" class="label">invoke_handler</text><text x="630" y="118" text-anchor="middle" class="sub">command 注册</text>
  <rect x="765" y="75" width="140" height="60" rx="8" class="orange"/><text x="835" y="99" text-anchor="middle" class="label">前端 invoke</text><text x="835" y="118" text-anchor="middle" class="sub">TS 调用边界</text>
  <rect x="70" y="245" width="160" height="62" rx="8" class="green"/><text x="150" y="269" text-anchor="middle" class="label">quiz.rs</text><text x="150" y="288" text-anchor="middle" class="sub">题库/记录/snapshot</text>
  <rect x="280" y="245" width="160" height="62" rx="8" class="red"/><text x="360" y="269" text-anchor="middle" class="label">ai.rs</text><text x="360" y="288" text-anchor="middle" class="sub">配置/AI 代理</text>
  <rect x="490" y="245" width="160" height="62" rx="8" class="purple"/><text x="570" y="269" text-anchor="middle" class="label">file_io.rs</text><text x="570" y="288" text-anchor="middle" class="sub">CSV/XLSX bytes</text>
  <rect x="700" y="245" width="160" height="62" rx="8" class="orange"/><text x="780" y="269" text-anchor="middle" class="label">question_parsing.rs</text><text x="780" y="288" text-anchor="middle" class="sub">AI/脚本解析</text>
  <ellipse cx="250" cy="430" rx="76" ry="16" fill="#dbeafe" stroke="#60a5fa" stroke-width="1.5"/><rect x="174" y="430" width="152" height="56" fill="#dbeafe"/><line x1="174" y1="430" x2="174" y2="486" stroke="#60a5fa" stroke-width="1.5"/><line x1="326" y1="430" x2="326" y2="486" stroke="#60a5fa" stroke-width="1.5"/><ellipse cx="250" cy="486" rx="76" ry="16" fill="#bfdbfe" stroke="#60a5fa" stroke-width="1.5"/><text x="250" y="458" text-anchor="middle" class="label">SQLite quiz.db</text><text x="250" y="476" text-anchor="middle" class="sub">quiz + ai_configs</text>
  <rect x="450" y="430" width="160" height="62" rx="8" class="red"/><text x="530" y="454" text-anchor="middle" class="label">AI Provider</text><text x="530" y="473" text-anchor="middle" class="sub">reqwest</text>
  <rect x="670" y="430" width="160" height="62" rx="8" class="purple"/><text x="750" y="454" text-anchor="middle" class="label">文件系统</text><text x="750" y="473" text-anchor="middle" class="sub">dialog/fs/logs</text>
  <path d="M225 105 L300 105" stroke="#16a34a" stroke-width="2" fill="none" marker-end="url(#arrow-green)"/><path d="M470 105 L545 105" stroke="#9333ea" stroke-width="2" fill="none" marker-end="url(#arrow-purple)"/><path d="M835 135 C835 185,630 185,630 135" stroke="#2563eb" stroke-width="2" fill="none" marker-end="url(#arrow-blue)"/>
  <path d="M630 135 C630 195,150 195,150 245" stroke="#9333ea" stroke-width="2" fill="none" marker-end="url(#arrow-purple)"/><path d="M630 135 C630 195,360 195,360 245" stroke="#9333ea" stroke-width="2" fill="none" marker-end="url(#arrow-purple)"/><path d="M630 135 L570 245" stroke="#9333ea" stroke-width="2" fill="none" marker-end="url(#arrow-purple)"/><path d="M630 135 C630 195,780 195,780 245" stroke="#9333ea" stroke-width="2" fill="none" marker-end="url(#arrow-purple)"/>
  <path d="M150 307 C150 370,250 370,250 414" stroke="#16a34a" stroke-width="2" fill="none" marker-end="url(#arrow-green)"/><path d="M360 307 C360 370,250 370,250 414" stroke="#dc2626" stroke-width="2" fill="none" marker-end="url(#arrow-red)" stroke-dasharray="6 4"/><path d="M360 307 C360 370,530 370,530 430" stroke="#dc2626" stroke-width="2" fill="none" marker-end="url(#arrow-red)"/><path d="M570 307 C570 370,750 370,750 430" stroke="#9333ea" stroke-width="2" fill="none" marker-end="url(#arrow-purple)"/>
  <path d="M780 307 C780 360,630 360,630 135" stroke="#16a34a" stroke-width="2" fill="none" marker-end="url(#arrow-green)" stroke-dasharray="6 4"/><text x="785" y="356" class="sub">Question[]</text>
</svg>

